%FSLAX46Y46*%
G04 Gerber Fmt 4.6, Leading zero omitted, Abs format (unit mm)*
G04 Created by KiCad (PCBNEW (2014-10-09 BZR 5173)-product) date Sun 09 Nov 2014 03:36:01 PM EST*
%MOMM*%
G01*
G04 APERTURE LIST*
%ADD10C,0.100000*%
%ADD11C,0.150000*%
G04 APERTURE END LIST*
D10*
X96000000Y-104500000D02*
X96000000Y-96400000D01*
X200000000Y-104500000D02*
X96000000Y-104500000D01*
X200000000Y-96400000D02*
X200000000Y-104400000D01*
X96000000Y-96400000D02*
X200000000Y-96400000D01*
D11*
X162600000Y-98600000D02*
X165400000Y-98600000D01*
X165400000Y-98600000D02*
X165400000Y-101400000D01*
X165400000Y-101400000D02*
X162600000Y-101400000D01*
X162600000Y-101400000D02*
X162600000Y-98600000D01*
X161000000Y-97000000D02*
X167000000Y-97000000D01*
X167000000Y-97000000D02*
X167000000Y-103000000D01*
X167000000Y-103000000D02*
X161000000Y-103000000D01*
X161000000Y-97000000D02*
X161000000Y-103000000D01*
X145600000Y-98600000D02*
X148400000Y-98600000D01*
X148400000Y-98600000D02*
X148400000Y-101400000D01*
X148400000Y-101400000D02*
X145600000Y-101400000D01*
X145600000Y-101400000D02*
X145600000Y-98600000D01*
X144000000Y-97000000D02*
X150000000Y-97000000D01*
X150000000Y-97000000D02*
X150000000Y-103000000D01*
X150000000Y-103000000D02*
X144000000Y-103000000D01*
X144000000Y-97000000D02*
X144000000Y-103000000D01*
X128600000Y-98600000D02*
X131400000Y-98600000D01*
X131400000Y-98600000D02*
X131400000Y-101400000D01*
X131400000Y-101400000D02*
X128600000Y-101400000D01*
X128600000Y-101400000D02*
X128600000Y-98600000D01*
X127000000Y-97000000D02*
X133000000Y-97000000D01*
X133000000Y-97000000D02*
X133000000Y-103000000D01*
X133000000Y-103000000D02*
X127000000Y-103000000D01*
X127000000Y-97000000D02*
X127000000Y-103000000D01*
X111600000Y-98600000D02*
X114400000Y-98600000D01*
X114400000Y-98600000D02*
X114400000Y-101400000D01*
X114400000Y-101400000D02*
X111600000Y-101400000D01*
X111600000Y-101400000D02*
X111600000Y-98600000D01*
X110000000Y-97000000D02*
X116000000Y-97000000D01*
X116000000Y-97000000D02*
X116000000Y-103000000D01*
X116000000Y-103000000D02*
X110000000Y-103000000D01*
X110000000Y-97000000D02*
X110000000Y-103000000D01*
D10*
X160223187Y-100279143D02*
X160251759Y-100193429D01*
X160251759Y-100050572D01*
X160223187Y-99993429D01*
X160194616Y-99964858D01*
X160137473Y-99936286D01*
X160080330Y-99936286D01*
X160023187Y-99964858D01*
X159994616Y-99993429D01*
X159966044Y-100050572D01*
X159937473Y-100164858D01*
X159908901Y-100222000D01*
X159880330Y-100250572D01*
X159823187Y-100279143D01*
X159766044Y-100279143D01*
X159708901Y-100250572D01*
X159680330Y-100222000D01*
X159651759Y-100164858D01*
X159651759Y-100022000D01*
X159680330Y-99936286D01*
X160251759Y-99364857D02*
X160251759Y-99707714D01*
X160251759Y-99536286D02*
X159651759Y-99536286D01*
X159737473Y-99593429D01*
X159794616Y-99650571D01*
X159823187Y-99707714D01*
X158794473Y-101479142D02*
X158823044Y-101393428D01*
X158851616Y-101364856D01*
X158908759Y-101336285D01*
X158994473Y-101336285D01*
X159051616Y-101364856D01*
X159080187Y-101393428D01*
X159108759Y-101450570D01*
X159108759Y-101679142D01*
X158508759Y-101679142D01*
X158508759Y-101479142D01*
X158537330Y-101421999D01*
X158565901Y-101393428D01*
X158623044Y-101364856D01*
X158680187Y-101364856D01*
X158737330Y-101393428D01*
X158765901Y-101421999D01*
X158794473Y-101479142D01*
X158794473Y-101679142D01*
X158508759Y-101079142D02*
X158994473Y-101079142D01*
X159051616Y-101050570D01*
X159080187Y-101021999D01*
X159108759Y-100964856D01*
X159108759Y-100850570D01*
X159080187Y-100793428D01*
X159051616Y-100764856D01*
X158994473Y-100736285D01*
X158508759Y-100736285D01*
X158508759Y-100536285D02*
X158508759Y-100193428D01*
X159108759Y-100364857D02*
X158508759Y-100364857D01*
X158508759Y-100079142D02*
X158508759Y-99736285D01*
X159108759Y-99907714D02*
X158508759Y-99907714D01*
X158508759Y-99421999D02*
X158508759Y-99307713D01*
X158537330Y-99250571D01*
X158594473Y-99193428D01*
X158708759Y-99164856D01*
X158908759Y-99164856D01*
X159023044Y-99193428D01*
X159080187Y-99250571D01*
X159108759Y-99307713D01*
X159108759Y-99421999D01*
X159080187Y-99479142D01*
X159023044Y-99536285D01*
X158908759Y-99564856D01*
X158708759Y-99564856D01*
X158594473Y-99536285D01*
X158537330Y-99479142D01*
X158508759Y-99421999D01*
X159108759Y-98907714D02*
X158508759Y-98907714D01*
X159108759Y-98564857D01*
X158508759Y-98564857D01*
X159108759Y-98279143D02*
X158508759Y-98279143D01*
X158508759Y-98136286D01*
X158537330Y-98050571D01*
X158594473Y-97993429D01*
X158651616Y-97964857D01*
X158765901Y-97936286D01*
X158851616Y-97936286D01*
X158965901Y-97964857D01*
X159023044Y-97993429D01*
X159080187Y-98050571D01*
X159108759Y-98136286D01*
X159108759Y-98279143D01*
X143229557Y-100533143D02*
X143258129Y-100447429D01*
X143258129Y-100304572D01*
X143229557Y-100247429D01*
X143200986Y-100218858D01*
X143143843Y-100190286D01*
X143086700Y-100190286D01*
X143029557Y-100218858D01*
X143000986Y-100247429D01*
X142972414Y-100304572D01*
X142943843Y-100418858D01*
X142915271Y-100476000D01*
X142886700Y-100504572D01*
X142829557Y-100533143D01*
X142772414Y-100533143D01*
X142715271Y-100504572D01*
X142686700Y-100476000D01*
X142658129Y-100418858D01*
X142658129Y-100276000D01*
X142686700Y-100190286D01*
X142715271Y-99961714D02*
X142686700Y-99933143D01*
X142658129Y-99876000D01*
X142658129Y-99733143D01*
X142686700Y-99676000D01*
X142715271Y-99647429D01*
X142772414Y-99618857D01*
X142829557Y-99618857D01*
X142915271Y-99647429D01*
X143258129Y-99990286D01*
X143258129Y-99618857D01*
X141673843Y-101733142D02*
X141702414Y-101647428D01*
X141730986Y-101618856D01*
X141788129Y-101590285D01*
X141873843Y-101590285D01*
X141930986Y-101618856D01*
X141959557Y-101647428D01*
X141988129Y-101704570D01*
X141988129Y-101933142D01*
X141388129Y-101933142D01*
X141388129Y-101733142D01*
X141416700Y-101675999D01*
X141445271Y-101647428D01*
X141502414Y-101618856D01*
X141559557Y-101618856D01*
X141616700Y-101647428D01*
X141645271Y-101675999D01*
X141673843Y-101733142D01*
X141673843Y-101933142D01*
X141388129Y-101333142D02*
X141873843Y-101333142D01*
X141930986Y-101304570D01*
X141959557Y-101275999D01*
X141988129Y-101218856D01*
X141988129Y-101104570D01*
X141959557Y-101047428D01*
X141930986Y-101018856D01*
X141873843Y-100990285D01*
X141388129Y-100990285D01*
X141388129Y-100790285D02*
X141388129Y-100447428D01*
X141988129Y-100618857D02*
X141388129Y-100618857D01*
X141388129Y-100333142D02*
X141388129Y-99990285D01*
X141988129Y-100161714D02*
X141388129Y-100161714D01*
X141388129Y-99675999D02*
X141388129Y-99561713D01*
X141416700Y-99504571D01*
X141473843Y-99447428D01*
X141588129Y-99418856D01*
X141788129Y-99418856D01*
X141902414Y-99447428D01*
X141959557Y-99504571D01*
X141988129Y-99561713D01*
X141988129Y-99675999D01*
X141959557Y-99733142D01*
X141902414Y-99790285D01*
X141788129Y-99818856D01*
X141588129Y-99818856D01*
X141473843Y-99790285D01*
X141416700Y-99733142D01*
X141388129Y-99675999D01*
X141988129Y-99161714D02*
X141388129Y-99161714D01*
X141988129Y-98818857D01*
X141388129Y-98818857D01*
X141930986Y-98190286D02*
X141959557Y-98218857D01*
X141988129Y-98304571D01*
X141988129Y-98361714D01*
X141959557Y-98447429D01*
X141902414Y-98504571D01*
X141845271Y-98533143D01*
X141730986Y-98561714D01*
X141645271Y-98561714D01*
X141530986Y-98533143D01*
X141473843Y-98504571D01*
X141416700Y-98447429D01*
X141388129Y-98361714D01*
X141388129Y-98304571D01*
X141416700Y-98218857D01*
X141445271Y-98190286D01*
X126369157Y-100406143D02*
X126397729Y-100320429D01*
X126397729Y-100177572D01*
X126369157Y-100120429D01*
X126340586Y-100091858D01*
X126283443Y-100063286D01*
X126226300Y-100063286D01*
X126169157Y-100091858D01*
X126140586Y-100120429D01*
X126112014Y-100177572D01*
X126083443Y-100291858D01*
X126054871Y-100349000D01*
X126026300Y-100377572D01*
X125969157Y-100406143D01*
X125912014Y-100406143D01*
X125854871Y-100377572D01*
X125826300Y-100349000D01*
X125797729Y-100291858D01*
X125797729Y-100149000D01*
X125826300Y-100063286D01*
X125797729Y-99863286D02*
X125797729Y-99491857D01*
X126026300Y-99691857D01*
X126026300Y-99606143D01*
X126054871Y-99549000D01*
X126083443Y-99520429D01*
X126140586Y-99491857D01*
X126283443Y-99491857D01*
X126340586Y-99520429D01*
X126369157Y-99549000D01*
X126397729Y-99606143D01*
X126397729Y-99777571D01*
X126369157Y-99834714D01*
X126340586Y-99863286D01*
X124813443Y-101606142D02*
X124842014Y-101520428D01*
X124870586Y-101491856D01*
X124927729Y-101463285D01*
X125013443Y-101463285D01*
X125070586Y-101491856D01*
X125099157Y-101520428D01*
X125127729Y-101577570D01*
X125127729Y-101806142D01*
X124527729Y-101806142D01*
X124527729Y-101606142D01*
X124556300Y-101548999D01*
X124584871Y-101520428D01*
X124642014Y-101491856D01*
X124699157Y-101491856D01*
X124756300Y-101520428D01*
X124784871Y-101548999D01*
X124813443Y-101606142D01*
X124813443Y-101806142D01*
X124527729Y-101206142D02*
X125013443Y-101206142D01*
X125070586Y-101177570D01*
X125099157Y-101148999D01*
X125127729Y-101091856D01*
X125127729Y-100977570D01*
X125099157Y-100920428D01*
X125070586Y-100891856D01*
X125013443Y-100863285D01*
X124527729Y-100863285D01*
X124527729Y-100663285D02*
X124527729Y-100320428D01*
X125127729Y-100491857D02*
X124527729Y-100491857D01*
X124527729Y-100206142D02*
X124527729Y-99863285D01*
X125127729Y-100034714D02*
X124527729Y-100034714D01*
X124527729Y-99548999D02*
X124527729Y-99434713D01*
X124556300Y-99377571D01*
X124613443Y-99320428D01*
X124727729Y-99291856D01*
X124927729Y-99291856D01*
X125042014Y-99320428D01*
X125099157Y-99377571D01*
X125127729Y-99434713D01*
X125127729Y-99548999D01*
X125099157Y-99606142D01*
X125042014Y-99663285D01*
X124927729Y-99691856D01*
X124727729Y-99691856D01*
X124613443Y-99663285D01*
X124556300Y-99606142D01*
X124527729Y-99548999D01*
X125127729Y-99034714D02*
X124527729Y-99034714D01*
X125127729Y-98691857D01*
X124527729Y-98691857D01*
X124813443Y-98206143D02*
X124842014Y-98120429D01*
X124870586Y-98091857D01*
X124927729Y-98063286D01*
X125013443Y-98063286D01*
X125070586Y-98091857D01*
X125099157Y-98120429D01*
X125127729Y-98177571D01*
X125127729Y-98406143D01*
X124527729Y-98406143D01*
X124527729Y-98206143D01*
X124556300Y-98149000D01*
X124584871Y-98120429D01*
X124642014Y-98091857D01*
X124699157Y-98091857D01*
X124756300Y-98120429D01*
X124784871Y-98149000D01*
X124813443Y-98206143D01*
X124813443Y-98406143D01*
X109251857Y-100406143D02*
X109280429Y-100320429D01*
X109280429Y-100177572D01*
X109251857Y-100120429D01*
X109223286Y-100091858D01*
X109166143Y-100063286D01*
X109109000Y-100063286D01*
X109051857Y-100091858D01*
X109023286Y-100120429D01*
X108994714Y-100177572D01*
X108966143Y-100291858D01*
X108937571Y-100349000D01*
X108909000Y-100377572D01*
X108851857Y-100406143D01*
X108794714Y-100406143D01*
X108737571Y-100377572D01*
X108709000Y-100349000D01*
X108680429Y-100291858D01*
X108680429Y-100149000D01*
X108709000Y-100063286D01*
X108880429Y-99549000D02*
X109280429Y-99549000D01*
X108651857Y-99691857D02*
X109080429Y-99834714D01*
X109080429Y-99463286D01*
X107950143Y-101563285D02*
X107978714Y-101477571D01*
X108007286Y-101448999D01*
X108064429Y-101420428D01*
X108150143Y-101420428D01*
X108207286Y-101448999D01*
X108235857Y-101477571D01*
X108264429Y-101534713D01*
X108264429Y-101763285D01*
X107664429Y-101763285D01*
X107664429Y-101563285D01*
X107693000Y-101506142D01*
X107721571Y-101477571D01*
X107778714Y-101448999D01*
X107835857Y-101448999D01*
X107893000Y-101477571D01*
X107921571Y-101506142D01*
X107950143Y-101563285D01*
X107950143Y-101763285D01*
X107664429Y-101163285D02*
X108150143Y-101163285D01*
X108207286Y-101134713D01*
X108235857Y-101106142D01*
X108264429Y-101048999D01*
X108264429Y-100934713D01*
X108235857Y-100877571D01*
X108207286Y-100848999D01*
X108150143Y-100820428D01*
X107664429Y-100820428D01*
X107664429Y-100620428D02*
X107664429Y-100277571D01*
X108264429Y-100449000D02*
X107664429Y-100449000D01*
X107664429Y-100163285D02*
X107664429Y-99820428D01*
X108264429Y-99991857D02*
X107664429Y-99991857D01*
X107664429Y-99506142D02*
X107664429Y-99391856D01*
X107693000Y-99334714D01*
X107750143Y-99277571D01*
X107864429Y-99248999D01*
X108064429Y-99248999D01*
X108178714Y-99277571D01*
X108235857Y-99334714D01*
X108264429Y-99391856D01*
X108264429Y-99506142D01*
X108235857Y-99563285D01*
X108178714Y-99620428D01*
X108064429Y-99648999D01*
X107864429Y-99648999D01*
X107750143Y-99620428D01*
X107693000Y-99563285D01*
X107664429Y-99506142D01*
X108264429Y-98991857D02*
X107664429Y-98991857D01*
X108264429Y-98649000D01*
X107664429Y-98649000D01*
X108093000Y-98391857D02*
X108093000Y-98106143D01*
X108264429Y-98449000D02*
X107664429Y-98249000D01*
X108264429Y-98049000D01*
M02*
