M48
;DRILL file {kicad (2014-10-09 BZR 5173)-product} date Sun 09 Nov 2014 03:36:02 PM EST
;FORMAT={-:-/ absolute / inch / decimal}
FMAT,2
INCH,TZ
T1C0.039
T2C0.043
T3C0.129
%
G90
G05
M72
T1
X7.3386Y-3.9449
X7.4386Y-3.9449
X7.5386Y-3.9449
X7.6386Y-3.9449
X7.7386Y-3.9449
T2
X4.3209Y-3.8484
X4.3209Y-4.0256
X4.5768Y-3.8484
X4.5768Y-4.0256
X4.9902Y-3.8484
X4.9902Y-4.0256
X5.2461Y-3.8484
X5.2461Y-4.0256
X5.6594Y-3.8484
X5.6594Y-4.0256
X5.9154Y-3.8484
X5.9154Y-4.0256
X6.3287Y-3.8484
X6.3287Y-4.0256
X6.5846Y-3.8484
X6.5846Y-4.0256
T3
X3.937Y-3.937
X6.9685Y-3.937
T0
M30
