%FSLAX46Y46*%
G04 Gerber Fmt 4.6, Leading zero omitted, Abs format (unit mm)*
G04 Created by KiCad (PCBNEW (2014-09-25 BZR 5147)-product) date Tue 30 Sep 2014 08:55:43 AM EDT*
%MOMM*%
G01*
G04 APERTURE LIST*
%ADD10C,0.100000*%
%ADD11R,1.850000X0.450000*%
%ADD12C,5.650000*%
%ADD13R,1.000000X1.450000*%
%ADD14R,1.450000X1.000000*%
%ADD15R,1.050000X1.750000*%
%ADD16R,2.100000X2.450000*%
%ADD17R,2.450000X2.100000*%
%ADD18R,3.250000X1.650000*%
%ADD19R,1.650000X1.650000*%
%ADD20C,1.650000*%
%ADD21R,1.300000X0.600000*%
%ADD22R,1.550000X0.600000*%
%ADD23R,1.800000X0.900000*%
%ADD24R,1.800000X3.200000*%
%ADD25R,0.600000X1.050000*%
%ADD26R,2.300000X1.550000*%
%ADD27C,1.524000*%
%ADD28C,1.651000*%
%ADD29C,3.302000*%
%ADD30C,5.400000*%
%ADD31C,3.400000*%
%ADD32R,1.950000X1.950000*%
%ADD33C,1.950000*%
%ADD34C,2.000000*%
%ADD35C,1.600000*%
%ADD36R,1.250000X0.600000*%
%ADD37R,1.600000X0.600000*%
%ADD38R,0.300000X1.500000*%
%ADD39R,1.500000X0.300000*%
%ADD40R,1.524000X1.524000*%
%ADD41R,1.350000X0.450000*%
%ADD42R,1.900000X1.300000*%
%ADD43C,0.254000*%
G04 APERTURE END LIST*
D10*
X100000000Y-139500000D02*
X100000000Y-66000000D01*
X206800000Y-139500000D02*
X100000000Y-139500000D01*
X206800000Y-66000000D02*
X206800000Y-139500000D01*
X100000000Y-66000000D02*
X206800000Y-66000000D01*
D11*
X183370000Y-85585540D03*
X183370000Y-86235540D03*
X183370000Y-86885540D03*
X183370000Y-87535540D03*
X183370000Y-88185540D03*
X183370000Y-88835540D03*
X183370000Y-89485540D03*
X183370000Y-90135540D03*
X183370000Y-90785540D03*
X183370000Y-91435540D03*
X183370000Y-92085540D03*
X183370000Y-92735540D03*
X183370000Y-93385540D03*
X183370000Y-94035540D03*
X190370000Y-94035540D03*
X190370000Y-93385540D03*
X190370000Y-92735540D03*
X190370000Y-92085540D03*
X190370000Y-91435540D03*
X190370000Y-90785540D03*
X190370000Y-90135540D03*
X190370000Y-89485540D03*
X190370000Y-88835540D03*
X190370000Y-88185540D03*
X190370000Y-87535540D03*
X190370000Y-86885540D03*
X190370000Y-86235540D03*
X190370000Y-85585540D03*
D12*
X202860000Y-70310540D03*
X105070000Y-70310000D03*
X105000000Y-135000000D03*
X202860000Y-135080540D03*
D13*
X195320000Y-96510540D03*
X193420000Y-96510540D03*
X195420000Y-84010540D03*
X193520000Y-84010540D03*
X182920000Y-83010540D03*
X184820000Y-83010540D03*
D14*
X126970000Y-80460540D03*
X126970000Y-78560540D03*
X132670000Y-84060540D03*
X132670000Y-85960540D03*
X132670000Y-87660540D03*
X132670000Y-89560540D03*
X145070000Y-88060540D03*
X145070000Y-86160540D03*
D13*
X188020000Y-101410540D03*
X189920000Y-101410540D03*
X185220000Y-101410540D03*
X183320000Y-101410540D03*
X190920000Y-82910540D03*
X189020000Y-82910540D03*
D14*
X167890000Y-101440000D03*
X167890000Y-99540000D03*
D13*
X190820000Y-96710540D03*
X188920000Y-96710540D03*
D14*
X159070000Y-74160540D03*
X159070000Y-76060540D03*
X152790000Y-81140000D03*
X152790000Y-83040000D03*
D13*
X109190000Y-130240000D03*
X107290000Y-130240000D03*
X109190000Y-117740000D03*
X107290000Y-117740000D03*
X174440000Y-116090000D03*
X172540000Y-116090000D03*
X171940000Y-86990000D03*
X170040000Y-86990000D03*
D14*
X176490000Y-90290000D03*
X176490000Y-92190000D03*
X168790000Y-113040000D03*
X168790000Y-111140000D03*
D13*
X164940000Y-88990000D03*
X163040000Y-88990000D03*
D14*
X137740000Y-111290000D03*
X137740000Y-113190000D03*
D13*
X111540000Y-115740000D03*
X113440000Y-115740000D03*
D15*
X165770000Y-68710540D03*
X168770000Y-68710540D03*
D13*
X171420000Y-68810540D03*
X173320000Y-68810540D03*
D14*
X195370000Y-105560540D03*
X195370000Y-103660540D03*
X180670000Y-105460540D03*
X180670000Y-103560540D03*
X190370000Y-103660540D03*
X190370000Y-105560540D03*
X188070000Y-105560540D03*
X188070000Y-103660540D03*
X185470000Y-103560540D03*
X185470000Y-105460540D03*
X183070000Y-105460540D03*
X183070000Y-103560540D03*
D13*
X107290000Y-127740000D03*
X109190000Y-127740000D03*
X107290000Y-120240000D03*
X109190000Y-120240000D03*
X109190000Y-125240000D03*
X107290000Y-125240000D03*
X109190000Y-122740000D03*
X107290000Y-122740000D03*
X117690000Y-115740000D03*
X115790000Y-115740000D03*
X119690000Y-86990000D03*
X117790000Y-86990000D03*
X119690000Y-84490000D03*
X117790000Y-84490000D03*
X119690000Y-81990000D03*
X117790000Y-81990000D03*
X119690000Y-79490000D03*
X117790000Y-79490000D03*
X199820000Y-82510540D03*
X197920000Y-82510540D03*
X139940000Y-115690000D03*
X138040000Y-115690000D03*
D14*
X167390000Y-85440000D03*
X167390000Y-87340000D03*
X144240000Y-111290000D03*
X144240000Y-113190000D03*
D13*
X144740000Y-115690000D03*
X142840000Y-115690000D03*
X163040000Y-86490000D03*
X164940000Y-86490000D03*
D14*
X111740000Y-103940000D03*
X111740000Y-102040000D03*
X167890000Y-106640000D03*
X167890000Y-104740000D03*
D16*
X194770000Y-93610540D03*
X194770000Y-86810540D03*
D17*
X135470000Y-87710540D03*
X142270000Y-87710540D03*
D18*
X203270000Y-77410540D03*
X198070000Y-77410540D03*
X184270000Y-77810540D03*
X179070000Y-77810540D03*
X112390000Y-110490000D03*
X117590000Y-110490000D03*
D14*
X192670000Y-103660540D03*
X192670000Y-105560540D03*
D19*
X148970000Y-68810540D03*
D20*
X151510000Y-68810540D03*
X154050000Y-68810540D03*
X156590000Y-68810540D03*
X159130000Y-68810540D03*
X161670000Y-68810540D03*
D19*
X115070000Y-68810540D03*
D20*
X117610000Y-68810540D03*
X120150000Y-68810540D03*
X122690000Y-68810540D03*
X125230000Y-68810540D03*
X127770000Y-68810540D03*
D13*
X184820000Y-96710540D03*
X182920000Y-96710540D03*
D21*
X171690000Y-99540000D03*
X171690000Y-101440000D03*
X173790000Y-100490000D03*
D22*
X168290000Y-89430000D03*
X168290000Y-90700000D03*
X168290000Y-91970000D03*
X168290000Y-93240000D03*
X168290000Y-94510000D03*
X168290000Y-95780000D03*
X168290000Y-97050000D03*
X173690000Y-97050000D03*
X173690000Y-95780000D03*
X173690000Y-94510000D03*
X173690000Y-93240000D03*
X173690000Y-91970000D03*
X173690000Y-90700000D03*
X173690000Y-89430000D03*
D23*
X198770000Y-93710540D03*
X198770000Y-96010540D03*
X198770000Y-98310540D03*
D24*
X204770000Y-96010540D03*
D25*
X140040000Y-113540000D03*
X140990000Y-113540000D03*
X141940000Y-113540000D03*
X141940000Y-110940000D03*
X140040000Y-110940000D03*
D26*
X199520000Y-102010540D03*
X203820000Y-102010540D03*
X155920000Y-88410540D03*
X160220000Y-88410540D03*
D13*
X155820000Y-85310540D03*
X157720000Y-85310540D03*
D14*
X130870000Y-69060540D03*
X130870000Y-70960540D03*
D13*
X141720000Y-83910540D03*
X139820000Y-83910540D03*
D14*
X147270000Y-72460540D03*
X147270000Y-74360540D03*
X130170000Y-80460540D03*
X130170000Y-78560540D03*
X147270000Y-79160540D03*
X147270000Y-81060540D03*
D27*
X187070000Y-113030540D03*
X187070000Y-115062540D03*
X187070000Y-117094540D03*
X187070000Y-119126540D03*
X187070000Y-121158540D03*
X187070000Y-123190540D03*
D28*
X184606200Y-110896940D03*
X184606200Y-113436940D03*
X184606200Y-122784140D03*
X184606200Y-125324140D03*
D29*
X198246000Y-124460540D03*
X198246000Y-111760540D03*
D28*
X201421000Y-110046040D03*
X201421000Y-126175040D03*
D19*
X202070000Y-86710540D03*
D20*
X202070000Y-89250540D03*
D19*
X171690000Y-106290000D03*
D20*
X174230000Y-106290000D03*
D19*
X115990000Y-103240000D03*
D20*
X118530000Y-103240000D03*
D19*
X113960000Y-86820000D03*
D20*
X113960000Y-84280000D03*
X113960000Y-81740000D03*
X113960000Y-79200000D03*
X113960000Y-76660000D03*
D19*
X103800000Y-128730000D03*
D20*
X103800000Y-126190000D03*
X103800000Y-123650000D03*
X103800000Y-121110000D03*
X103800000Y-118570000D03*
D30*
X131740000Y-103330000D03*
X157140000Y-103330000D03*
D31*
X144440000Y-135842540D03*
X144440000Y-93170000D03*
D32*
X141890000Y-105870000D03*
D33*
X144440000Y-105870000D03*
X146990000Y-105870000D03*
D32*
X179020000Y-70210540D03*
D33*
X181570000Y-70210540D03*
X184120000Y-70210540D03*
D34*
X176190000Y-119010000D03*
X176190000Y-135910000D03*
X169840000Y-119010000D03*
X169840000Y-135910000D03*
X163490000Y-119010000D03*
X163490000Y-135910000D03*
X157140000Y-119010000D03*
X157140000Y-135910000D03*
X150790000Y-119010000D03*
X150790000Y-135910000D03*
X138090000Y-119010000D03*
X138090000Y-135910000D03*
X131740000Y-119010000D03*
X131740000Y-135910000D03*
X125390000Y-119010000D03*
X125390000Y-135910000D03*
X119040000Y-119010000D03*
X119040000Y-135910000D03*
X112690000Y-119010000D03*
X112690000Y-135910000D03*
X194870000Y-70210540D03*
X191870000Y-70210540D03*
D35*
X188870000Y-72170540D03*
X197870000Y-72170540D03*
D36*
X153920000Y-74160540D03*
X153920000Y-75110540D03*
X153920000Y-76060540D03*
X156620000Y-76060540D03*
X156620000Y-75110540D03*
X156620000Y-74160540D03*
D37*
X155140000Y-78885000D03*
X155140000Y-80155000D03*
X155140000Y-81425000D03*
X155140000Y-82695000D03*
X162340000Y-82695000D03*
X162340000Y-81425000D03*
X162340000Y-80155000D03*
X162340000Y-78885000D03*
D38*
X135020000Y-81410540D03*
X135520000Y-81410540D03*
X136020000Y-81410540D03*
X136520000Y-81410540D03*
X137020000Y-81410540D03*
X137520000Y-81410540D03*
X138020000Y-81410540D03*
X138520000Y-81410540D03*
X139020000Y-81410540D03*
X139520000Y-81410540D03*
X140020000Y-81410540D03*
X140520000Y-81410540D03*
X141020000Y-81410540D03*
X141520000Y-81410540D03*
X142020000Y-81410540D03*
X142520000Y-81410540D03*
D39*
X144470000Y-79460540D03*
X144470000Y-78960540D03*
X144470000Y-78460540D03*
X144470000Y-77960540D03*
X144470000Y-77460540D03*
X144470000Y-76960540D03*
X144470000Y-76460540D03*
X144470000Y-75960540D03*
X144470000Y-75460540D03*
X144470000Y-74960540D03*
X144470000Y-74460540D03*
X144470000Y-73960540D03*
X144470000Y-73460540D03*
X144470000Y-72960540D03*
X144470000Y-72460540D03*
X144470000Y-71960540D03*
D38*
X142520000Y-70010540D03*
X142020000Y-70010540D03*
X141520000Y-70010540D03*
X141020000Y-70010540D03*
X140520000Y-70010540D03*
X140020000Y-70010540D03*
X139520000Y-70010540D03*
X139020000Y-70010540D03*
X138520000Y-70010540D03*
X138020000Y-70010540D03*
X137520000Y-70010540D03*
X137020000Y-70010540D03*
X136520000Y-70010540D03*
X136020000Y-70010540D03*
X135520000Y-70010540D03*
X135020000Y-70010540D03*
D39*
X133070000Y-71960540D03*
X133070000Y-72460540D03*
X133070000Y-72960540D03*
X133070000Y-73460540D03*
X133070000Y-73960540D03*
X133070000Y-74460540D03*
X133070000Y-74960540D03*
X133070000Y-75460540D03*
X133070000Y-75960540D03*
X133070000Y-76460540D03*
X133070000Y-76960540D03*
X133070000Y-77460540D03*
X133070000Y-77960540D03*
X133070000Y-78460540D03*
X133070000Y-78960540D03*
X133070000Y-79460540D03*
D40*
X106340000Y-109680000D03*
D27*
X103800000Y-109680000D03*
X106340000Y-107140000D03*
X103800000Y-107140000D03*
X106340000Y-104600000D03*
X103800000Y-104600000D03*
X106340000Y-102060000D03*
X103800000Y-102060000D03*
X106340000Y-99520000D03*
X103800000Y-99520000D03*
X106340000Y-96980000D03*
X103800000Y-96980000D03*
X106340000Y-94440000D03*
X103800000Y-94440000D03*
X106340000Y-91900000D03*
X103800000Y-91900000D03*
X106340000Y-89360000D03*
X103800000Y-89360000D03*
X106340000Y-86820000D03*
X103800000Y-86820000D03*
X106340000Y-84280000D03*
X103800000Y-84280000D03*
X106340000Y-81740000D03*
X103800000Y-81740000D03*
X106340000Y-79200000D03*
X103800000Y-79200000D03*
D41*
X175640000Y-113665000D03*
X175640000Y-113015000D03*
X175640000Y-112365000D03*
X175640000Y-111715000D03*
X171340000Y-111715000D03*
X171340000Y-112365000D03*
X171340000Y-113015000D03*
X171340000Y-113665000D03*
D19*
X151470000Y-86910540D03*
D20*
X148930000Y-86910540D03*
D42*
X126970000Y-83060540D03*
X126970000Y-88560540D03*
X130170000Y-88560540D03*
X130170000Y-83060540D03*
D43*
G36*
X176043000Y-120183540D02*
X112797000Y-120183540D01*
X112797000Y-117837540D01*
X149597000Y-117837540D01*
X149597000Y-110059010D01*
X146256105Y-106619853D01*
X147962632Y-105182777D01*
X151943000Y-109163145D01*
X151943000Y-117837540D01*
X176043000Y-117837540D01*
X176043000Y-120183540D01*
X176043000Y-120183540D01*
G37*
X176043000Y-120183540D02*
X112797000Y-120183540D01*
X112797000Y-117837540D01*
X149597000Y-117837540D01*
X149597000Y-110059010D01*
X146256105Y-106619853D01*
X147962632Y-105182777D01*
X151943000Y-109163145D01*
X151943000Y-117837540D01*
X176043000Y-117837540D01*
X176043000Y-120183540D01*
G36*
X145643000Y-105783540D02*
X143297000Y-105783540D01*
X143297000Y-93237540D01*
X145643000Y-93237540D01*
X145643000Y-105783540D01*
X145643000Y-105783540D01*
G37*
X145643000Y-105783540D02*
X143297000Y-105783540D01*
X143297000Y-93237540D01*
X145643000Y-93237540D01*
X145643000Y-105783540D01*
G36*
X176143000Y-137083540D02*
X112797000Y-137083540D01*
X112797000Y-134737540D01*
X176143000Y-134737540D01*
X176143000Y-137083540D01*
X176143000Y-137083540D01*
G37*
X176143000Y-137083540D02*
X112797000Y-137083540D01*
X112797000Y-134737540D01*
X176143000Y-134737540D01*
X176143000Y-137083540D01*
M02*
