M48
;DRILL file {kicad (2014-09-25 BZR 5147)-product} date Tue 30 Sep 2014 08:55:45 AM EDT
;FORMAT={-:-/ absolute / inch / decimal}
FMAT,2
INCH,TZ
T1C0.013
T2C0.039
T3C0.040
T4C0.045
T5C0.048
T6C0.050
T7C0.051
T8C0.062
T9C0.089
T10C0.094
T11C0.128
T12C0.129
%
G90
G05
M72
T1
X4.1799Y-4.6776
X4.2705Y-4.0713
X4.3067Y-4.5626
X4.3413Y-3.6579
X4.3413Y-3.7067
X4.3413Y-4.5083
X4.371Y-4.4432
X4.3768Y-3.6855
X4.4201Y-3.5926
X4.4319Y-3.7957
X4.4516Y-2.8114
X4.4555Y-3.6697
X4.4673Y-4.5004
X4.4725Y-3.7961
X4.5106Y-4.5988
X4.5114Y-4.5626
X4.5146Y-3.7957
X4.5224Y-3.6225
X4.5539Y-3.7957
X4.5618Y-3.6225
X4.5933Y-3.276
X4.5933Y-3.3744
X4.5972Y-3.1776
X4.6012Y-3.6225
X4.6445Y-4.4532
X4.6524Y-2.8114
X4.6563Y-3.5949
X4.676Y-3.4768
X4.6957Y-4.2839
X4.7232Y-4.4001
X4.7272Y-4.3114
X4.7272Y-4.3508
X4.7615Y-3.9996
X4.8138Y-2.965
X4.849Y-2.9332
X4.8656Y-3.9996
X4.8689Y-4.3075
X4.8846Y-2.8941
X5.0657Y-3.091
X5.0776Y-2.7957
X5.1248Y-3.5792
X5.1248Y-3.6146
X5.1248Y-3.65
X5.2941Y-3.3429
X5.3217Y-2.6736
X5.3453Y-4.276
X5.3453Y-4.3705
X5.361Y-3.0239
X5.365Y-2.7012
X5.4161Y-2.9905
X5.4397Y-3.2642
X5.44Y-3.2999
X5.4445Y-3.1069
X5.4673Y-3.1343
X5.4815Y-2.9009
X5.4988Y-2.8705
X5.5342Y-2.871
X5.5343Y-3.3744
X5.5576Y-2.845
X5.5665Y-4.5547
X5.5684Y-2.9399
X5.5799Y-2.818
X5.5854Y-2.9965
X5.586Y-3.12
X5.6012Y-2.961
X5.621Y-3.1183
X5.6346Y-3.1506
X5.7902Y-3.5595
X5.798Y-3.2484
X5.8177Y-3.528
X5.8553Y-2.9407
X5.8677Y-2.9734
X5.8768Y-3.6461
X5.8838Y-3.0045
X5.8941Y-3.038
X5.8948Y-2.9272
X5.8956Y-3.073
X5.9043Y-3.6146
X5.9044Y-3.1068
X5.9831Y-2.902
X6.0106Y-2.8469
X6.0106Y-2.9571
X6.0154Y-3.3185
X6.0618Y-2.8465
X6.113Y-2.9374
X6.113Y-2.9886
X6.2114Y-2.8465
X6.2154Y-2.9571
X6.2665Y-3.0455
X6.2902Y-3.3154
X6.3217Y-3.2721
X6.3543Y-3.3056
X6.3913Y-3.0439
X6.4437Y-3.2839
X6.4827Y-3.0815
X6.4871Y-3.0468
X6.5419Y-3.2345
X6.5421Y-3.1645
X6.5421Y-3.0595
X6.5421Y-3.0945
X6.5421Y-3.1295
X6.5431Y-3.1995
X6.5744Y-4.0587
X6.6098Y-3.8697
X6.6192Y-3.0178
X6.6909Y-4.4831
X6.7201Y-4.3618
X6.7358Y-4.5705
X6.7744Y-3.3666
X6.7744Y-3.6303
X6.802Y-3.2345
X6.8125Y-4.4466
X6.8382Y-4.3972
X6.9004Y-3.9532
X6.9091Y-3.1532
X6.9607Y-3.2275
X7.0106Y-3.8193
X7.0343Y-5.3429
X7.0373Y-3.3267
X7.0495Y-3.3615
X7.0606Y-3.3953
X7.0637Y-3.8193
X7.0994Y-4.5444
X7.1012Y-4.6225
X7.1109Y-3.9177
X7.1366Y-3.6421
X7.1642Y-3.9925
X7.1878Y-3.8666
X7.2154Y-3.8902
X7.2941Y-3.524
X7.2941Y-3.5752
X7.2941Y-3.6102
X7.3846Y-3.2642
X7.3965Y-3.4256
X7.3965Y-3.6461
X7.4004Y-3.3696
X7.4122Y-3.7091
X7.4398Y-3.8744
X7.4476Y-3.9335
X7.4752Y-3.2051
X7.5224Y-3.9295
X7.5421Y-4.0358
X7.5421Y-4.1973
X7.5618Y-3.2051
X7.5618Y-3.4217
X7.5736Y-3.5555
X7.5736Y-3.6185
X7.5854Y-4.0004
X7.5972Y-3.4925
X7.6169Y-3.8705
X7.6563Y-3.2406
X7.7547Y-3.8351
X7.7547Y-3.8705
X7.7547Y-3.9059
T2
X4.0866Y-3.1181
X4.0866Y-3.2181
X4.0866Y-3.3181
X4.0866Y-3.4181
X4.0866Y-3.5181
X4.0866Y-3.6181
X4.0866Y-3.7181
X4.0866Y-3.8181
X4.0866Y-3.9181
X4.0866Y-4.0181
X4.0866Y-4.1181
X4.0866Y-4.2181
X4.0866Y-4.3181
X4.0866Y-4.6681
X4.0866Y-4.7681
X4.0866Y-4.8681
X4.0866Y-4.9681
X4.0866Y-5.0681
X4.1866Y-3.1181
X4.1866Y-3.2181
X4.1866Y-3.3181
X4.1866Y-3.4181
X4.1866Y-3.5181
X4.1866Y-3.6181
X4.1866Y-3.7181
X4.1866Y-3.8181
X4.1866Y-3.9181
X4.1866Y-4.0181
X4.1866Y-4.1181
X4.1866Y-4.2181
X4.1866Y-4.3181
X4.4366Y-4.6854
X4.4366Y-5.3508
X4.4866Y-3.0181
X4.4866Y-3.1181
X4.4866Y-3.2181
X4.4866Y-3.3181
X4.4866Y-3.4181
X4.5303Y-2.7091
X4.5665Y-4.0646
X4.6303Y-2.7091
X4.6665Y-4.0646
X4.6866Y-4.6854
X4.6866Y-5.3508
X4.7303Y-2.7091
X4.8303Y-2.7091
X4.9303Y-2.7091
X4.9366Y-4.6854
X4.9366Y-5.3508
X5.0303Y-2.7091
X5.1866Y-4.6854
X5.1866Y-5.3508
X5.4366Y-4.6854
X5.4366Y-5.3508
X5.8634Y-3.4217
X5.865Y-2.7091
X5.9366Y-4.6854
X5.9366Y-5.3508
X5.9634Y-3.4217
X5.965Y-2.7091
X6.065Y-2.7091
X6.165Y-2.7091
X6.1866Y-4.6854
X6.1866Y-5.3508
X6.265Y-2.7091
X6.365Y-2.7091
X6.4366Y-4.6854
X6.4366Y-5.3508
X6.6866Y-4.6854
X6.6866Y-5.3508
X6.7594Y-4.1846
X6.8594Y-4.1846
X6.9366Y-4.6854
X6.9366Y-5.3508
X7.9555Y-3.4138
X7.9555Y-3.5138
T3
X7.365Y-4.45
X7.365Y-4.53
X7.365Y-4.61
X7.365Y-4.69
X7.365Y-4.77
X7.365Y-4.85
T4
X7.268Y-4.366
X7.268Y-4.466
X7.268Y-4.834
X7.268Y-4.934
T5
X7.5539Y-2.7642
X7.672Y-2.7642
T6
X7.4358Y-2.8414
X7.7902Y-2.8414
T7
X5.5862Y-4.1681
X5.6866Y-4.1681
X5.787Y-4.1681
X7.048Y-2.7642
X7.1484Y-2.7642
X7.2488Y-2.7642
T8
X7.93Y-4.3325
X7.93Y-4.9675
T9
X5.6866Y-3.6681
X5.6866Y-5.3481
T10
X5.1866Y-4.0681
X6.1866Y-4.0681
T11
X7.805Y-4.4
X7.805Y-4.9
T12
X4.1339Y-5.315
X4.1366Y-2.7681
X7.9866Y-2.7681
X7.9866Y-5.3181
T0
M30
