%FSLAX46Y46*%
G04 Gerber Fmt 4.6, Leading zero omitted, Abs format (unit mm)*
G04 Created by KiCad (PCBNEW (2014-09-25 BZR 5147)-product) date Tue 30 Sep 2014 08:55:43 AM EDT*
%MOMM*%
G01*
G04 APERTURE LIST*
%ADD10C,0.100000*%
%ADD11C,5.650000*%
%ADD12R,1.650000X1.650000*%
%ADD13C,1.650000*%
%ADD14C,1.524000*%
%ADD15C,1.651000*%
%ADD16C,3.302000*%
%ADD17C,5.400000*%
%ADD18C,3.400000*%
%ADD19R,1.950000X1.950000*%
%ADD20C,1.950000*%
%ADD21C,2.000000*%
%ADD22C,1.600000*%
%ADD23R,1.524000X1.524000*%
%ADD24C,0.254000*%
G04 APERTURE END LIST*
D10*
X100000000Y-139500000D02*
X100000000Y-66000000D01*
X206800000Y-139500000D02*
X100000000Y-139500000D01*
X206800000Y-66000000D02*
X206800000Y-139500000D01*
X100000000Y-66000000D02*
X206800000Y-66000000D01*
D11*
X202860000Y-70310540D03*
X105070000Y-70310000D03*
X105000000Y-135000000D03*
X202860000Y-135080540D03*
D12*
X148970000Y-68810540D03*
D13*
X151510000Y-68810540D03*
X154050000Y-68810540D03*
X156590000Y-68810540D03*
X159130000Y-68810540D03*
X161670000Y-68810540D03*
D12*
X115070000Y-68810540D03*
D13*
X117610000Y-68810540D03*
X120150000Y-68810540D03*
X122690000Y-68810540D03*
X125230000Y-68810540D03*
X127770000Y-68810540D03*
D14*
X187070000Y-113030540D03*
X187070000Y-115062540D03*
X187070000Y-117094540D03*
X187070000Y-119126540D03*
X187070000Y-121158540D03*
X187070000Y-123190540D03*
D15*
X184606200Y-110896940D03*
X184606200Y-113436940D03*
X184606200Y-122784140D03*
X184606200Y-125324140D03*
D16*
X198246000Y-124460540D03*
X198246000Y-111760540D03*
D15*
X201421000Y-110046040D03*
X201421000Y-126175040D03*
D12*
X202070000Y-86710540D03*
D13*
X202070000Y-89250540D03*
D12*
X171690000Y-106290000D03*
D13*
X174230000Y-106290000D03*
D12*
X115990000Y-103240000D03*
D13*
X118530000Y-103240000D03*
D12*
X113960000Y-86820000D03*
D13*
X113960000Y-84280000D03*
X113960000Y-81740000D03*
X113960000Y-79200000D03*
X113960000Y-76660000D03*
D12*
X103800000Y-128730000D03*
D13*
X103800000Y-126190000D03*
X103800000Y-123650000D03*
X103800000Y-121110000D03*
X103800000Y-118570000D03*
D17*
X131740000Y-103330000D03*
X157140000Y-103330000D03*
D18*
X144440000Y-135842540D03*
X144440000Y-93170000D03*
D19*
X141890000Y-105870000D03*
D20*
X144440000Y-105870000D03*
X146990000Y-105870000D03*
D19*
X179020000Y-70210540D03*
D20*
X181570000Y-70210540D03*
X184120000Y-70210540D03*
D21*
X176190000Y-119010000D03*
X176190000Y-135910000D03*
X169840000Y-119010000D03*
X169840000Y-135910000D03*
X163490000Y-119010000D03*
X163490000Y-135910000D03*
X157140000Y-119010000D03*
X157140000Y-135910000D03*
X150790000Y-119010000D03*
X150790000Y-135910000D03*
X138090000Y-119010000D03*
X138090000Y-135910000D03*
X131740000Y-119010000D03*
X131740000Y-135910000D03*
X125390000Y-119010000D03*
X125390000Y-135910000D03*
X119040000Y-119010000D03*
X119040000Y-135910000D03*
X112690000Y-119010000D03*
X112690000Y-135910000D03*
X194870000Y-70210540D03*
X191870000Y-70210540D03*
D22*
X188870000Y-72170540D03*
X197870000Y-72170540D03*
D23*
X106340000Y-109680000D03*
D14*
X103800000Y-109680000D03*
X106340000Y-107140000D03*
X103800000Y-107140000D03*
X106340000Y-104600000D03*
X103800000Y-104600000D03*
X106340000Y-102060000D03*
X103800000Y-102060000D03*
X106340000Y-99520000D03*
X103800000Y-99520000D03*
X106340000Y-96980000D03*
X103800000Y-96980000D03*
X106340000Y-94440000D03*
X103800000Y-94440000D03*
X106340000Y-91900000D03*
X103800000Y-91900000D03*
X106340000Y-89360000D03*
X103800000Y-89360000D03*
X106340000Y-86820000D03*
X103800000Y-86820000D03*
X106340000Y-84280000D03*
X103800000Y-84280000D03*
X106340000Y-81740000D03*
X103800000Y-81740000D03*
X106340000Y-79200000D03*
X103800000Y-79200000D03*
D12*
X151470000Y-86910540D03*
D13*
X148930000Y-86910540D03*
D24*
G36*
X176043000Y-120183540D02*
X112797000Y-120183540D01*
X112797000Y-117837540D01*
X149597000Y-117837540D01*
X149597000Y-110059010D01*
X146256105Y-106619853D01*
X147962632Y-105182777D01*
X151943000Y-109163145D01*
X151943000Y-117837540D01*
X176043000Y-117837540D01*
X176043000Y-120183540D01*
X176043000Y-120183540D01*
G37*
X176043000Y-120183540D02*
X112797000Y-120183540D01*
X112797000Y-117837540D01*
X149597000Y-117837540D01*
X149597000Y-110059010D01*
X146256105Y-106619853D01*
X147962632Y-105182777D01*
X151943000Y-109163145D01*
X151943000Y-117837540D01*
X176043000Y-117837540D01*
X176043000Y-120183540D01*
G36*
X145643000Y-105783540D02*
X143297000Y-105783540D01*
X143297000Y-93237540D01*
X145643000Y-93237540D01*
X145643000Y-105783540D01*
X145643000Y-105783540D01*
G37*
X145643000Y-105783540D02*
X143297000Y-105783540D01*
X143297000Y-93237540D01*
X145643000Y-93237540D01*
X145643000Y-105783540D01*
G36*
X176143000Y-137083540D02*
X112797000Y-137083540D01*
X112797000Y-134737540D01*
X176143000Y-134737540D01*
X176143000Y-137083540D01*
X176143000Y-137083540D01*
G37*
X176143000Y-137083540D02*
X112797000Y-137083540D01*
X112797000Y-134737540D01*
X176143000Y-134737540D01*
X176143000Y-137083540D01*
M02*
