%FSLAX46Y46*%
G04 Gerber Fmt 4.6, Leading zero omitted, Abs format (unit mm)*
G04 Created by KiCad (PCBNEW (2014-09-25 BZR 5147)-product) date Tue 30 Sep 2014 08:55:43 AM EDT*
%MOMM*%
G01*
G04 APERTURE LIST*
%ADD10C,0.100000*%
%ADD11C,0.300000*%
G04 APERTURE END LIST*
D10*
D11*
X172291429Y-127889111D02*
X172291429Y-126389111D01*
X171648572Y-127889111D02*
X171648572Y-127103397D01*
X171720001Y-126960540D01*
X171862858Y-126889111D01*
X172077143Y-126889111D01*
X172220001Y-126960540D01*
X172291429Y-127031969D01*
X171148572Y-126889111D02*
X170577143Y-126889111D01*
X170934286Y-126389111D02*
X170934286Y-127674826D01*
X170862858Y-127817683D01*
X170720000Y-127889111D01*
X170577143Y-127889111D01*
X170291429Y-126889111D02*
X169720000Y-126889111D01*
X170077143Y-126389111D02*
X170077143Y-127674826D01*
X170005715Y-127817683D01*
X169862857Y-127889111D01*
X169720000Y-127889111D01*
X169220000Y-126889111D02*
X169220000Y-128389111D01*
X169220000Y-126960540D02*
X169077143Y-126889111D01*
X168791429Y-126889111D01*
X168648572Y-126960540D01*
X168577143Y-127031969D01*
X168505714Y-127174826D01*
X168505714Y-127603397D01*
X168577143Y-127746254D01*
X168648572Y-127817683D01*
X168791429Y-127889111D01*
X169077143Y-127889111D01*
X169220000Y-127817683D01*
X167934286Y-127817683D02*
X167791429Y-127889111D01*
X167505714Y-127889111D01*
X167362857Y-127817683D01*
X167291429Y-127674826D01*
X167291429Y-127603397D01*
X167362857Y-127460540D01*
X167505714Y-127389111D01*
X167720000Y-127389111D01*
X167862857Y-127317683D01*
X167934286Y-127174826D01*
X167934286Y-127103397D01*
X167862857Y-126960540D01*
X167720000Y-126889111D01*
X167505714Y-126889111D01*
X167362857Y-126960540D01*
X166648571Y-127746254D02*
X166577143Y-127817683D01*
X166648571Y-127889111D01*
X166720000Y-127817683D01*
X166648571Y-127746254D01*
X166648571Y-127889111D01*
X166648571Y-126960540D02*
X166577143Y-127031969D01*
X166648571Y-127103397D01*
X166720000Y-127031969D01*
X166648571Y-126960540D01*
X166648571Y-127103397D01*
X164862857Y-126317683D02*
X166148571Y-128246254D01*
X163291428Y-126317683D02*
X164577142Y-128246254D01*
X162148570Y-126889111D02*
X162148570Y-128103397D01*
X162219999Y-128246254D01*
X162291427Y-128317683D01*
X162434284Y-128389111D01*
X162648570Y-128389111D01*
X162791427Y-128317683D01*
X162148570Y-127817683D02*
X162291427Y-127889111D01*
X162577141Y-127889111D01*
X162719999Y-127817683D01*
X162791427Y-127746254D01*
X162862856Y-127603397D01*
X162862856Y-127174826D01*
X162791427Y-127031969D01*
X162719999Y-126960540D01*
X162577141Y-126889111D01*
X162291427Y-126889111D01*
X162148570Y-126960540D01*
X161434284Y-127889111D02*
X161434284Y-126889111D01*
X161434284Y-126389111D02*
X161505713Y-126460540D01*
X161434284Y-126531969D01*
X161362856Y-126460540D01*
X161434284Y-126389111D01*
X161434284Y-126531969D01*
X160934284Y-126889111D02*
X160362855Y-126889111D01*
X160719998Y-126389111D02*
X160719998Y-127674826D01*
X160648570Y-127817683D01*
X160505712Y-127889111D01*
X160362855Y-127889111D01*
X159862855Y-127889111D02*
X159862855Y-126389111D01*
X159219998Y-127889111D02*
X159219998Y-127103397D01*
X159291427Y-126960540D01*
X159434284Y-126889111D01*
X159648569Y-126889111D01*
X159791427Y-126960540D01*
X159862855Y-127031969D01*
X157862855Y-126889111D02*
X157862855Y-127889111D01*
X158505712Y-126889111D02*
X158505712Y-127674826D01*
X158434284Y-127817683D01*
X158291426Y-127889111D01*
X158077141Y-127889111D01*
X157934284Y-127817683D01*
X157862855Y-127746254D01*
X157148569Y-127889111D02*
X157148569Y-126389111D01*
X157148569Y-126960540D02*
X157005712Y-126889111D01*
X156719998Y-126889111D01*
X156577141Y-126960540D01*
X156505712Y-127031969D01*
X156434283Y-127174826D01*
X156434283Y-127603397D01*
X156505712Y-127746254D01*
X156577141Y-127817683D01*
X156719998Y-127889111D01*
X157005712Y-127889111D01*
X157148569Y-127817683D01*
X155791426Y-127746254D02*
X155719998Y-127817683D01*
X155791426Y-127889111D01*
X155862855Y-127817683D01*
X155791426Y-127746254D01*
X155791426Y-127889111D01*
X154434283Y-127817683D02*
X154577140Y-127889111D01*
X154862854Y-127889111D01*
X155005712Y-127817683D01*
X155077140Y-127746254D01*
X155148569Y-127603397D01*
X155148569Y-127174826D01*
X155077140Y-127031969D01*
X155005712Y-126960540D01*
X154862854Y-126889111D01*
X154577140Y-126889111D01*
X154434283Y-126960540D01*
X153577140Y-127889111D02*
X153719998Y-127817683D01*
X153791426Y-127746254D01*
X153862855Y-127603397D01*
X153862855Y-127174826D01*
X153791426Y-127031969D01*
X153719998Y-126960540D01*
X153577140Y-126889111D01*
X153362855Y-126889111D01*
X153219998Y-126960540D01*
X153148569Y-127031969D01*
X153077140Y-127174826D01*
X153077140Y-127603397D01*
X153148569Y-127746254D01*
X153219998Y-127817683D01*
X153362855Y-127889111D01*
X153577140Y-127889111D01*
X152434283Y-127889111D02*
X152434283Y-126889111D01*
X152434283Y-127031969D02*
X152362855Y-126960540D01*
X152219997Y-126889111D01*
X152005712Y-126889111D01*
X151862855Y-126960540D01*
X151791426Y-127103397D01*
X151791426Y-127889111D01*
X151791426Y-127103397D02*
X151719997Y-126960540D01*
X151577140Y-126889111D01*
X151362855Y-126889111D01*
X151219997Y-126960540D01*
X151148569Y-127103397D01*
X151148569Y-127889111D01*
X149362855Y-126317683D02*
X150648569Y-128246254D01*
X148862854Y-126889111D02*
X148862854Y-128174826D01*
X148934283Y-128317683D01*
X149077140Y-128389111D01*
X149148568Y-128389111D01*
X148862854Y-126389111D02*
X148934283Y-126460540D01*
X148862854Y-126531969D01*
X148791426Y-126460540D01*
X148862854Y-126389111D01*
X148862854Y-126531969D01*
X147934282Y-127889111D02*
X148077140Y-127817683D01*
X148148568Y-127746254D01*
X148219997Y-127603397D01*
X148219997Y-127174826D01*
X148148568Y-127031969D01*
X148077140Y-126960540D01*
X147934282Y-126889111D01*
X147719997Y-126889111D01*
X147577140Y-126960540D01*
X147505711Y-127031969D01*
X147434282Y-127174826D01*
X147434282Y-127603397D01*
X147505711Y-127746254D01*
X147577140Y-127817683D01*
X147719997Y-127889111D01*
X147934282Y-127889111D01*
X146219997Y-127817683D02*
X146362854Y-127889111D01*
X146648568Y-127889111D01*
X146791425Y-127817683D01*
X146862854Y-127674826D01*
X146862854Y-127103397D01*
X146791425Y-126960540D01*
X146648568Y-126889111D01*
X146362854Y-126889111D01*
X146219997Y-126960540D01*
X146148568Y-127103397D01*
X146148568Y-127246254D01*
X146862854Y-127389111D01*
X145719997Y-126889111D02*
X145148568Y-126889111D01*
X145505711Y-127889111D02*
X145505711Y-126603397D01*
X145434283Y-126460540D01*
X145291425Y-126389111D01*
X145148568Y-126389111D01*
X144077140Y-127817683D02*
X144219997Y-127889111D01*
X144505711Y-127889111D01*
X144648568Y-127817683D01*
X144719997Y-127674826D01*
X144719997Y-127103397D01*
X144648568Y-126960540D01*
X144505711Y-126889111D01*
X144219997Y-126889111D01*
X144077140Y-126960540D01*
X144005711Y-127103397D01*
X144005711Y-127246254D01*
X144719997Y-127389111D01*
X143362854Y-127889111D02*
X143362854Y-126889111D01*
X143362854Y-127174826D02*
X143291426Y-127031969D01*
X143219997Y-126960540D01*
X143077140Y-126889111D01*
X142934283Y-126889111D01*
X142434283Y-126889111D02*
X142434283Y-127889111D01*
X142434283Y-127031969D02*
X142362855Y-126960540D01*
X142219997Y-126889111D01*
X142005712Y-126889111D01*
X141862855Y-126960540D01*
X141791426Y-127103397D01*
X141791426Y-127889111D01*
X140505712Y-127817683D02*
X140648569Y-127889111D01*
X140934283Y-127889111D01*
X141077140Y-127817683D01*
X141148569Y-127674826D01*
X141148569Y-127103397D01*
X141077140Y-126960540D01*
X140934283Y-126889111D01*
X140648569Y-126889111D01*
X140505712Y-126960540D01*
X140434283Y-127103397D01*
X140434283Y-127246254D01*
X141148569Y-127389111D01*
X139791426Y-127889111D02*
X139791426Y-126889111D01*
X139791426Y-127174826D02*
X139719998Y-127031969D01*
X139648569Y-126960540D01*
X139505712Y-126889111D01*
X139362855Y-126889111D01*
X137791427Y-126317683D02*
X139077141Y-128246254D01*
X136648569Y-127889111D02*
X136648569Y-126389111D01*
X136648569Y-127817683D02*
X136791426Y-127889111D01*
X137077140Y-127889111D01*
X137219998Y-127817683D01*
X137291426Y-127746254D01*
X137362855Y-127603397D01*
X137362855Y-127174826D01*
X137291426Y-127031969D01*
X137219998Y-126960540D01*
X137077140Y-126889111D01*
X136791426Y-126889111D01*
X136648569Y-126960540D01*
X135291426Y-127817683D02*
X135434283Y-127889111D01*
X135719997Y-127889111D01*
X135862855Y-127817683D01*
X135934283Y-127746254D01*
X136005712Y-127603397D01*
X136005712Y-127174826D01*
X135934283Y-127031969D01*
X135862855Y-126960540D01*
X135719997Y-126889111D01*
X135434283Y-126889111D01*
X135291426Y-126960540D01*
X134648569Y-127317683D02*
X133505712Y-127317683D01*
X132219998Y-127817683D02*
X132362855Y-127889111D01*
X132648569Y-127889111D01*
X132791426Y-127817683D01*
X132862855Y-127674826D01*
X132862855Y-127103397D01*
X132791426Y-126960540D01*
X132648569Y-126889111D01*
X132362855Y-126889111D01*
X132219998Y-126960540D01*
X132148569Y-127103397D01*
X132148569Y-127246254D01*
X132862855Y-127389111D01*
X131291426Y-127889111D02*
X131434284Y-127817683D01*
X131505712Y-127674826D01*
X131505712Y-126389111D01*
X130148570Y-127817683D02*
X130291427Y-127889111D01*
X130577141Y-127889111D01*
X130719998Y-127817683D01*
X130791427Y-127674826D01*
X130791427Y-127103397D01*
X130719998Y-126960540D01*
X130577141Y-126889111D01*
X130291427Y-126889111D01*
X130148570Y-126960540D01*
X130077141Y-127103397D01*
X130077141Y-127246254D01*
X130791427Y-127389111D01*
X128791427Y-127817683D02*
X128934284Y-127889111D01*
X129219998Y-127889111D01*
X129362856Y-127817683D01*
X129434284Y-127746254D01*
X129505713Y-127603397D01*
X129505713Y-127174826D01*
X129434284Y-127031969D01*
X129362856Y-126960540D01*
X129219998Y-126889111D01*
X128934284Y-126889111D01*
X128791427Y-126960540D01*
X128362856Y-126889111D02*
X127791427Y-126889111D01*
X128148570Y-126389111D02*
X128148570Y-127674826D01*
X128077142Y-127817683D01*
X127934284Y-127889111D01*
X127791427Y-127889111D01*
X127291427Y-127889111D02*
X127291427Y-126889111D01*
X127291427Y-127174826D02*
X127219999Y-127031969D01*
X127148570Y-126960540D01*
X127005713Y-126889111D01*
X126862856Y-126889111D01*
X126148570Y-127889111D02*
X126291428Y-127817683D01*
X126362856Y-127746254D01*
X126434285Y-127603397D01*
X126434285Y-127174826D01*
X126362856Y-127031969D01*
X126291428Y-126960540D01*
X126148570Y-126889111D01*
X125934285Y-126889111D01*
X125791428Y-126960540D01*
X125719999Y-127031969D01*
X125648570Y-127174826D01*
X125648570Y-127603397D01*
X125719999Y-127746254D01*
X125791428Y-127817683D01*
X125934285Y-127889111D01*
X126148570Y-127889111D01*
X125005713Y-126889111D02*
X125005713Y-127889111D01*
X125005713Y-127031969D02*
X124934285Y-126960540D01*
X124791427Y-126889111D01*
X124577142Y-126889111D01*
X124434285Y-126960540D01*
X124362856Y-127103397D01*
X124362856Y-127889111D01*
X123648570Y-127889111D02*
X123648570Y-126889111D01*
X123648570Y-126389111D02*
X123719999Y-126460540D01*
X123648570Y-126531969D01*
X123577142Y-126460540D01*
X123648570Y-126389111D01*
X123648570Y-126531969D01*
X122291427Y-127817683D02*
X122434284Y-127889111D01*
X122719998Y-127889111D01*
X122862856Y-127817683D01*
X122934284Y-127746254D01*
X123005713Y-127603397D01*
X123005713Y-127174826D01*
X122934284Y-127031969D01*
X122862856Y-126960540D01*
X122719998Y-126889111D01*
X122434284Y-126889111D01*
X122291427Y-126960540D01*
X121648570Y-127317683D02*
X120505713Y-127317683D01*
X119577141Y-127889111D02*
X119719999Y-127817683D01*
X119791427Y-127674826D01*
X119791427Y-126389111D01*
X118791427Y-127889111D02*
X118934285Y-127817683D01*
X119005713Y-127746254D01*
X119077142Y-127603397D01*
X119077142Y-127174826D01*
X119005713Y-127031969D01*
X118934285Y-126960540D01*
X118791427Y-126889111D01*
X118577142Y-126889111D01*
X118434285Y-126960540D01*
X118362856Y-127031969D01*
X118291427Y-127174826D01*
X118291427Y-127603397D01*
X118362856Y-127746254D01*
X118434285Y-127817683D01*
X118577142Y-127889111D01*
X118791427Y-127889111D01*
X117005713Y-127889111D02*
X117005713Y-127103397D01*
X117077142Y-126960540D01*
X117219999Y-126889111D01*
X117505713Y-126889111D01*
X117648570Y-126960540D01*
X117005713Y-127817683D02*
X117148570Y-127889111D01*
X117505713Y-127889111D01*
X117648570Y-127817683D01*
X117719999Y-127674826D01*
X117719999Y-127531969D01*
X117648570Y-127389111D01*
X117505713Y-127317683D01*
X117148570Y-127317683D01*
X117005713Y-127246254D01*
X115648570Y-127889111D02*
X115648570Y-126389111D01*
X115648570Y-127817683D02*
X115791427Y-127889111D01*
X116077141Y-127889111D01*
X116219999Y-127817683D01*
X116291427Y-127746254D01*
X116362856Y-127603397D01*
X116362856Y-127174826D01*
X116291427Y-127031969D01*
X116219999Y-126960540D01*
X116077141Y-126889111D01*
X115791427Y-126889111D01*
X115648570Y-126960540D01*
D10*
X100000000Y-139500000D02*
X100000000Y-66000000D01*
X206800000Y-139500000D02*
X100000000Y-139500000D01*
X206800000Y-66000000D02*
X206800000Y-139500000D01*
X100000000Y-66000000D02*
X206800000Y-66000000D01*
M02*
